<svg width="1304" height="638" viewBox="0 0 1304 638" fill="none" xmlns="http://www.w3.org/2000/svg">
<rect width="1304" height="638" transform="matrix(1 0 0 -1 0 638)" fill="#1EBFBF"/>
<rect x="782.502" y="412.542" width="196.239" height="41.688" rx="20.844" fill="#16191C"/>
<path d="M837.703 425.728L832.327 440.386H828.757L823.381 425.728H826.531L830.563 437.383L834.574 425.728H837.703ZM850.155 430.264C850.155 431.048 849.966 431.783 849.588 432.469C849.224 433.155 848.643 433.708 847.845 434.128C847.061 434.548 846.067 434.758 844.863 434.758H842.406V440.386H839.466V425.728H844.863C845.997 425.728 846.963 425.924 847.761 426.316C848.559 426.708 849.154 427.247 849.546 427.933C849.952 428.619 850.155 429.396 850.155 430.264ZM844.737 432.385C845.549 432.385 846.151 432.203 846.543 431.839C846.935 431.461 847.131 430.936 847.131 430.264C847.131 428.836 846.333 428.122 844.737 428.122H842.406V432.385H844.737ZM864.779 440.386H861.839L855.182 430.327V440.386H852.242V425.707H855.182L861.839 435.787V425.707H864.779V440.386ZM877.14 440.575C876.188 440.575 875.334 440.407 874.578 440.071C873.822 439.721 873.22 439.252 872.772 438.664C872.338 438.076 872.1 437.425 872.058 436.711H875.019C875.075 437.159 875.292 437.53 875.67 437.824C876.062 438.118 876.545 438.265 877.119 438.265C877.679 438.265 878.113 438.153 878.421 437.929C878.743 437.705 878.904 437.418 878.904 437.068C878.904 436.69 878.708 436.41 878.316 436.228C877.938 436.032 877.329 435.822 876.489 435.598C875.621 435.388 874.907 435.171 874.347 434.947C873.801 434.723 873.325 434.38 872.919 433.918C872.527 433.456 872.331 432.833 872.331 432.049C872.331 431.405 872.513 430.817 872.877 430.285C873.255 429.753 873.787 429.333 874.473 429.025C875.173 428.717 875.992 428.563 876.93 428.563C878.316 428.563 879.422 428.913 880.248 429.613C881.074 430.299 881.529 431.23 881.613 432.406H878.799C878.757 431.944 878.561 431.58 878.211 431.314C877.875 431.034 877.42 430.894 876.846 430.894C876.314 430.894 875.901 430.992 875.607 431.188C875.327 431.384 875.187 431.657 875.187 432.007C875.187 432.399 875.383 432.7 875.775 432.91C876.167 433.106 876.776 433.309 877.602 433.519C878.442 433.729 879.135 433.946 879.681 434.17C880.227 434.394 880.696 434.744 881.088 435.22C881.494 435.682 881.704 436.298 881.718 437.068C881.718 437.74 881.529 438.342 881.151 438.874C880.787 439.406 880.255 439.826 879.555 440.134C878.869 440.428 878.064 440.575 877.14 440.575ZM894.947 434.317C894.947 434.737 894.919 435.115 894.863 435.451H886.358C886.428 436.291 886.722 436.949 887.24 437.425C887.758 437.901 888.395 438.139 889.151 438.139C890.243 438.139 891.02 437.67 891.482 436.732H894.653C894.317 437.852 893.673 438.776 892.721 439.504C891.769 440.218 890.6 440.575 889.214 440.575C888.094 440.575 887.086 440.33 886.19 439.84C885.308 439.336 884.615 438.629 884.111 437.719C883.621 436.809 883.376 435.759 883.376 434.569C883.376 433.365 883.621 432.308 884.111 431.398C884.601 430.488 885.287 429.788 886.169 429.298C887.051 428.808 888.066 428.563 889.214 428.563C890.32 428.563 891.307 428.801 892.175 429.277C893.057 429.753 893.736 430.432 894.212 431.314C894.702 432.182 894.947 433.183 894.947 434.317ZM891.902 433.477C891.888 432.721 891.615 432.119 891.083 431.671C890.551 431.209 889.9 430.978 889.13 430.978C888.402 430.978 887.786 431.202 887.282 431.65C886.792 432.084 886.491 432.693 886.379 433.477H891.902ZM900.033 430.558C900.411 429.942 900.901 429.459 901.503 429.109C902.119 428.759 902.819 428.584 903.603 428.584V431.671H902.826C901.902 431.671 901.202 431.888 900.726 432.322C900.264 432.756 900.033 433.512 900.033 434.59V440.386H897.093V428.752H900.033V430.558ZM910.434 437.677L913.374 428.752H916.503L912.198 440.386H908.628L904.344 428.752H907.494L910.434 437.677ZM928.969 434.317C928.969 434.737 928.941 435.115 928.885 435.451H920.38C920.45 436.291 920.744 436.949 921.262 437.425C921.78 437.901 922.417 438.139 923.173 438.139C924.265 438.139 925.042 437.67 925.504 436.732H928.675C928.339 437.852 927.695 438.776 926.743 439.504C925.791 440.218 924.622 440.575 923.236 440.575C922.116 440.575 921.108 440.33 920.212 439.84C919.33 439.336 918.637 438.629 918.133 437.719C917.643 436.809 917.398 435.759 917.398 434.569C917.398 433.365 917.643 432.308 918.133 431.398C918.623 430.488 919.309 429.788 920.191 429.298C921.073 428.808 922.088 428.563 923.236 428.563C924.342 428.563 925.329 428.801 926.197 429.277C927.079 429.753 927.758 430.432 928.234 431.314C928.724 432.182 928.969 433.183 928.969 434.317ZM925.924 433.477C925.91 432.721 925.637 432.119 925.105 431.671C924.573 431.209 923.922 430.978 923.152 430.978C922.424 430.978 921.808 431.202 921.304 431.65C920.814 432.084 920.513 432.693 920.401 433.477H925.924ZM934.055 430.558C934.433 429.942 934.923 429.459 935.525 429.109C936.141 428.759 936.841 428.584 937.625 428.584V431.671H936.848C935.924 431.671 935.224 431.888 934.748 432.322C934.286 432.756 934.055 433.512 934.055 434.59V440.386H931.115V428.752H934.055V430.558Z" fill="#F9F9F9"/>
<rect x="1042.74" y="412.542" width="168.786" height="41.688" rx="20.844" fill="#16191C"/>
<path d="M1089.37 425.728V440.386H1086.43V425.728H1089.37ZM1098.72 428.584C1100.1 428.584 1101.22 429.025 1102.08 429.907C1102.93 430.775 1103.36 431.993 1103.36 433.561V440.386H1100.42V433.96C1100.42 433.036 1100.19 432.329 1099.72 431.839C1099.26 431.335 1098.63 431.083 1097.83 431.083C1097.02 431.083 1096.38 431.335 1095.9 431.839C1095.44 432.329 1095.21 433.036 1095.21 433.96V440.386H1092.27V428.752H1095.21V430.201C1095.6 429.697 1096.1 429.305 1096.7 429.025C1097.32 428.731 1097.99 428.584 1098.72 428.584ZM1109.58 431.167V436.795C1109.58 437.187 1109.67 437.474 1109.85 437.656C1110.05 437.824 1110.37 437.908 1110.82 437.908H1112.18V440.386H1110.33C1107.85 440.386 1106.62 439.182 1106.62 436.774V431.167H1105.23V428.752H1106.62V425.875H1109.58V428.752H1112.18V431.167H1109.58ZM1125.11 434.317C1125.11 434.737 1125.08 435.115 1125.03 435.451H1116.52C1116.59 436.291 1116.89 436.949 1117.4 437.425C1117.92 437.901 1118.56 438.139 1119.31 438.139C1120.41 438.139 1121.18 437.67 1121.65 436.732H1124.82C1124.48 437.852 1123.84 438.776 1122.88 439.504C1121.93 440.218 1120.76 440.575 1119.38 440.575C1118.26 440.575 1117.25 440.33 1116.35 439.84C1115.47 439.336 1114.78 438.629 1114.27 437.719C1113.78 436.809 1113.54 435.759 1113.54 434.569C1113.54 433.365 1113.78 432.308 1114.27 431.398C1114.76 430.488 1115.45 429.788 1116.33 429.298C1117.21 428.808 1118.23 428.563 1119.38 428.563C1120.48 428.563 1121.47 428.801 1122.34 429.277C1123.22 429.753 1123.9 430.432 1124.38 431.314C1124.87 432.182 1125.11 433.183 1125.11 434.317ZM1122.07 433.477C1122.05 432.721 1121.78 432.119 1121.25 431.671C1120.71 431.209 1120.06 430.978 1119.29 430.978C1118.57 430.978 1117.95 431.202 1117.45 431.65C1116.96 432.084 1116.65 432.693 1116.54 433.477H1122.07ZM1130.2 430.558C1130.57 429.942 1131.06 429.459 1131.67 429.109C1132.28 428.759 1132.98 428.584 1133.77 428.584V431.671H1132.99C1132.07 431.671 1131.37 431.888 1130.89 432.322C1130.43 432.756 1130.2 433.512 1130.2 434.59V440.386H1127.26V428.752H1130.2V430.558ZM1142.19 428.584C1143.58 428.584 1144.7 429.025 1145.55 429.907C1146.41 430.775 1146.83 431.993 1146.83 433.561V440.386H1143.89V433.96C1143.89 433.036 1143.66 432.329 1143.2 431.839C1142.74 431.335 1142.11 431.083 1141.31 431.083C1140.5 431.083 1139.86 431.335 1139.38 431.839C1138.92 432.329 1138.69 433.036 1138.69 433.96V440.386H1135.75V428.752H1138.69V430.201C1139.08 429.697 1139.58 429.305 1140.18 429.025C1140.79 428.731 1141.47 428.584 1142.19 428.584ZM1160.45 434.317C1160.45 434.737 1160.42 435.115 1160.36 435.451H1151.86C1151.93 436.291 1152.22 436.949 1152.74 437.425C1153.26 437.901 1153.89 438.139 1154.65 438.139C1155.74 438.139 1156.52 437.67 1156.98 436.732H1160.15C1159.82 437.852 1159.17 438.776 1158.22 439.504C1157.27 440.218 1156.1 440.575 1154.71 440.575C1153.59 440.575 1152.58 440.33 1151.69 439.84C1150.81 439.336 1150.11 438.629 1149.61 437.719C1149.12 436.809 1148.87 435.759 1148.87 434.569C1148.87 433.365 1149.12 432.308 1149.61 431.398C1150.1 430.488 1150.79 429.788 1151.67 429.298C1152.55 428.808 1153.56 428.563 1154.71 428.563C1155.82 428.563 1156.81 428.801 1157.67 429.277C1158.56 429.753 1159.23 430.432 1159.71 431.314C1160.2 432.182 1160.45 433.183 1160.45 434.317ZM1157.4 433.477C1157.39 432.721 1157.11 432.119 1156.58 431.671C1156.05 431.209 1155.4 430.978 1154.63 430.978C1153.9 430.978 1153.28 431.202 1152.78 431.65C1152.29 432.084 1151.99 432.693 1151.88 433.477H1157.4ZM1166.01 431.167V436.795C1166.01 437.187 1166.11 437.474 1166.29 437.656C1166.48 437.824 1166.81 437.908 1167.25 437.908H1168.62V440.386H1166.77C1164.29 440.386 1163.05 439.182 1163.05 436.774V431.167H1161.67V428.752H1163.05V425.875H1166.01V428.752H1168.62V431.167H1166.01Z" fill="#F9F9F9"/>
<rect x="579.207" y="412.542" width="139.299" height="41.688" rx="20.844" fill="#16191C"/>
<path d="M622.705 440.386L619.471 434.674H618.085V440.386H615.145V425.728H620.647C621.781 425.728 622.747 425.931 623.545 426.337C624.343 426.729 624.938 427.268 625.33 427.954C625.736 428.626 625.939 429.382 625.939 430.222C625.939 431.188 625.659 432.063 625.099 432.847C624.539 433.617 623.706 434.149 622.6 434.443L626.107 440.386H622.705ZM618.085 432.469H620.542C621.34 432.469 621.935 432.28 622.327 431.902C622.719 431.51 622.915 430.971 622.915 430.285C622.915 429.613 622.719 429.095 622.327 428.731C621.935 428.353 621.34 428.164 620.542 428.164H618.085V432.469ZM633.764 440.575C632.644 440.575 631.636 440.33 630.74 439.84C629.844 439.336 629.137 438.629 628.619 437.719C628.115 436.809 627.863 435.759 627.863 434.569C627.863 433.379 628.122 432.329 628.64 431.419C629.172 430.509 629.893 429.809 630.803 429.319C631.713 428.815 632.728 428.563 633.848 428.563C634.968 428.563 635.983 428.815 636.893 429.319C637.803 429.809 638.517 430.509 639.035 431.419C639.567 432.329 639.833 433.379 639.833 434.569C639.833 435.759 639.56 436.809 639.014 437.719C638.482 438.629 637.754 439.336 636.83 439.84C635.92 440.33 634.898 440.575 633.764 440.575ZM633.764 438.013C634.296 438.013 634.793 437.887 635.255 437.635C635.731 437.369 636.109 436.977 636.389 436.459C636.669 435.941 636.809 435.311 636.809 434.569C636.809 433.463 636.515 432.616 635.927 432.028C635.353 431.426 634.646 431.125 633.806 431.125C632.966 431.125 632.259 431.426 631.685 432.028C631.125 432.616 630.845 433.463 630.845 434.569C630.845 435.675 631.118 436.529 631.664 437.131C632.224 437.719 632.924 438.013 633.764 438.013ZM652.973 428.752V440.386H650.012V438.916C649.634 439.42 649.137 439.819 648.521 440.113C647.919 440.393 647.261 440.533 646.547 440.533C645.637 440.533 644.832 440.344 644.132 439.966C643.432 439.574 642.879 439.007 642.473 438.265C642.081 437.509 641.885 436.613 641.885 435.577V428.752H644.825V435.157C644.825 436.081 645.056 436.795 645.518 437.299C645.98 437.789 646.61 438.034 647.408 438.034C648.22 438.034 648.857 437.789 649.319 437.299C649.781 436.795 650.012 436.081 650.012 435.157V428.752H652.973ZM659.296 431.167V436.795C659.296 437.187 659.387 437.474 659.569 437.656C659.765 437.824 660.087 437.908 660.535 437.908H661.9V440.386H660.052C657.574 440.386 656.335 439.182 656.335 436.774V431.167H654.949V428.752H656.335V425.875H659.296V428.752H661.9V431.167H659.296ZM674.83 434.317C674.83 434.737 674.802 435.115 674.746 435.451H666.241C666.311 436.291 666.605 436.949 667.123 437.425C667.641 437.901 668.278 438.139 669.034 438.139C670.126 438.139 670.903 437.67 671.365 436.732H674.536C674.2 437.852 673.556 438.776 672.604 439.504C671.652 440.218 670.483 440.575 669.097 440.575C667.977 440.575 666.969 440.33 666.073 439.84C665.191 439.336 664.498 438.629 663.994 437.719C663.504 436.809 663.259 435.759 663.259 434.569C663.259 433.365 663.504 432.308 663.994 431.398C664.484 430.488 665.17 429.788 666.052 429.298C666.934 428.808 667.949 428.563 669.097 428.563C670.203 428.563 671.19 428.801 672.058 429.277C672.94 429.753 673.619 430.432 674.095 431.314C674.585 432.182 674.83 433.183 674.83 434.317ZM671.785 433.477C671.771 432.721 671.498 432.119 670.966 431.671C670.434 431.209 669.783 430.978 669.013 430.978C668.285 430.978 667.669 431.202 667.165 431.65C666.675 432.084 666.374 432.693 666.262 433.477H671.785ZM679.916 430.558C680.294 429.942 680.784 429.459 681.386 429.109C682.002 428.759 682.702 428.584 683.486 428.584V431.671H682.709C681.785 431.671 681.085 431.888 680.609 432.322C680.147 432.756 679.916 433.512 679.916 434.59V440.386H676.976V428.752H679.916V430.558Z" fill="#F9F9F9"/>
<rect x="294.474" y="412.542" width="247.078" height="41.688" rx="20.844" fill="#16191C"/>
<path d="M341.916 430.264C341.916 431.048 341.727 431.783 341.349 432.469C340.985 433.155 340.404 433.708 339.606 434.128C338.822 434.548 337.828 434.758 336.624 434.758H334.167V440.386H331.227V425.728H336.624C337.758 425.728 338.724 425.924 339.522 426.316C340.32 426.708 340.915 427.247 341.307 427.933C341.713 428.619 341.916 429.396 341.916 430.264ZM336.498 432.385C337.31 432.385 337.912 432.203 338.304 431.839C338.696 431.461 338.892 430.936 338.892 430.264C338.892 428.836 338.094 428.122 336.498 428.122H334.167V432.385H336.498ZM354.692 430.264C354.692 431.048 354.503 431.783 354.125 432.469C353.761 433.155 353.18 433.708 352.382 434.128C351.598 434.548 350.604 434.758 349.4 434.758H346.943V440.386H344.003V425.728H349.4C350.534 425.728 351.5 425.924 352.298 426.316C353.096 426.708 353.691 427.247 354.083 427.933C354.489 428.619 354.692 429.396 354.692 430.264ZM349.274 432.385C350.086 432.385 350.688 432.203 351.08 431.839C351.472 431.461 351.668 430.936 351.668 430.264C351.668 428.836 350.87 428.122 349.274 428.122H346.943V432.385H349.274ZM360.476 434.296C361.582 433.204 362.352 432.322 362.786 431.65C363.234 430.964 363.458 430.285 363.458 429.613C363.458 428.997 363.29 428.514 362.954 428.164C362.618 427.8 362.1 427.618 361.4 427.618C360.728 427.618 360.203 427.849 359.825 428.311C359.461 428.773 359.265 429.424 359.237 430.264H356.381C356.395 429.13 356.626 428.178 357.074 427.408C357.536 426.624 358.145 426.05 358.901 425.686C359.671 425.308 360.532 425.119 361.484 425.119C362.548 425.119 363.451 425.308 364.193 425.686C364.949 426.064 365.516 426.589 365.894 427.261C366.272 427.919 366.461 428.675 366.461 429.529C366.461 430.481 366.195 431.405 365.663 432.301C365.145 433.197 364.221 434.296 362.891 435.598L360.518 437.95H366.776V440.386H356.402V438.244L360.476 434.296ZM379.958 430.264C379.958 431.048 379.769 431.783 379.391 432.469C379.027 433.155 378.446 433.708 377.648 434.128C376.864 434.548 375.87 434.758 374.666 434.758H372.209V440.386H369.269V425.728H374.666C375.8 425.728 376.766 425.924 377.564 426.316C378.362 426.708 378.957 427.247 379.349 427.933C379.755 428.619 379.958 429.396 379.958 430.264ZM374.54 432.385C375.352 432.385 375.954 432.203 376.346 431.839C376.738 431.461 376.934 430.936 376.934 430.264C376.934 428.836 376.136 428.122 374.54 428.122H372.209V432.385H374.54ZM386.293 434.569C386.293 433.365 386.538 432.315 387.028 431.419C387.518 430.509 388.197 429.809 389.065 429.319C389.933 428.815 390.927 428.563 392.047 428.563C393.489 428.563 394.679 428.927 395.617 429.655C396.569 430.369 397.206 431.377 397.528 432.679H394.357C394.189 432.175 393.902 431.783 393.496 431.503C393.104 431.209 392.614 431.062 392.026 431.062C391.186 431.062 390.521 431.37 390.031 431.986C389.541 432.588 389.296 433.449 389.296 434.569C389.296 435.675 389.541 436.536 390.031 437.152C390.521 437.754 391.186 438.055 392.026 438.055C393.216 438.055 393.993 437.523 394.357 436.459H397.528C397.206 437.719 396.569 438.72 395.617 439.462C394.665 440.204 393.475 440.575 392.047 440.575C390.927 440.575 389.933 440.33 389.065 439.84C388.197 439.336 387.518 438.636 387.028 437.74C386.538 436.83 386.293 435.773 386.293 434.569ZM404.848 440.575C403.728 440.575 402.72 440.33 401.824 439.84C400.928 439.336 400.221 438.629 399.703 437.719C399.199 436.809 398.947 435.759 398.947 434.569C398.947 433.379 399.206 432.329 399.724 431.419C400.256 430.509 400.977 429.809 401.887 429.319C402.797 428.815 403.812 428.563 404.932 428.563C406.052 428.563 407.067 428.815 407.977 429.319C408.887 429.809 409.601 430.509 410.119 431.419C410.651 432.329 410.917 433.379 410.917 434.569C410.917 435.759 410.644 436.809 410.098 437.719C409.566 438.629 408.838 439.336 407.914 439.84C407.004 440.33 405.982 440.575 404.848 440.575ZM404.848 438.013C405.38 438.013 405.877 437.887 406.339 437.635C406.815 437.369 407.193 436.977 407.473 436.459C407.753 435.941 407.893 435.311 407.893 434.569C407.893 433.463 407.599 432.616 407.011 432.028C406.437 431.426 405.73 431.125 404.89 431.125C404.05 431.125 403.343 431.426 402.769 432.028C402.209 432.616 401.929 433.463 401.929 434.569C401.929 435.675 402.202 436.529 402.748 437.131C403.308 437.719 404.008 438.013 404.848 438.013ZM419.521 428.584C420.907 428.584 422.027 429.025 422.881 429.907C423.735 430.775 424.162 431.993 424.162 433.561V440.386H421.222V433.96C421.222 433.036 420.991 432.329 420.529 431.839C420.067 431.335 419.437 431.083 418.639 431.083C417.827 431.083 417.183 431.335 416.707 431.839C416.245 432.329 416.014 433.036 416.014 433.96V440.386H413.074V428.752H416.014V430.201C416.406 429.697 416.903 429.305 417.505 429.025C418.121 428.731 418.793 428.584 419.521 428.584ZM433.404 428.584C434.79 428.584 435.91 429.025 436.764 429.907C437.618 430.775 438.045 431.993 438.045 433.561V440.386H435.105V433.96C435.105 433.036 434.874 432.329 434.412 431.839C433.95 431.335 433.32 431.083 432.522 431.083C431.71 431.083 431.066 431.335 430.59 431.839C430.128 432.329 429.897 433.036 429.897 433.96V440.386H426.957V428.752H429.897V430.201C430.289 429.697 430.786 429.305 431.388 429.025C432.004 428.731 432.676 428.584 433.404 428.584ZM451.656 434.317C451.656 434.737 451.628 435.115 451.572 435.451H443.067C443.137 436.291 443.431 436.949 443.949 437.425C444.467 437.901 445.104 438.139 445.86 438.139C446.952 438.139 447.729 437.67 448.191 436.732H451.362C451.026 437.852 450.382 438.776 449.43 439.504C448.478 440.218 447.309 440.575 445.923 440.575C444.803 440.575 443.795 440.33 442.899 439.84C442.017 439.336 441.324 438.629 440.82 437.719C440.33 436.809 440.085 435.759 440.085 434.569C440.085 433.365 440.33 432.308 440.82 431.398C441.31 430.488 441.996 429.788 442.878 429.298C443.76 428.808 444.775 428.563 445.923 428.563C447.029 428.563 448.016 428.801 448.884 429.277C449.766 429.753 450.445 430.432 450.921 431.314C451.411 432.182 451.656 433.183 451.656 434.317ZM448.611 433.477C448.597 432.721 448.324 432.119 447.792 431.671C447.26 431.209 446.609 430.978 445.839 430.978C445.111 430.978 444.495 431.202 443.991 431.65C443.501 432.084 443.2 432.693 443.088 433.477H448.611ZM453.046 434.569C453.046 433.365 453.291 432.315 453.781 431.419C454.271 430.509 454.95 429.809 455.818 429.319C456.686 428.815 457.68 428.563 458.8 428.563C460.242 428.563 461.432 428.927 462.37 429.655C463.322 430.369 463.959 431.377 464.281 432.679H461.11C460.942 432.175 460.655 431.783 460.249 431.503C459.857 431.209 459.367 431.062 458.779 431.062C457.939 431.062 457.274 431.37 456.784 431.986C456.294 432.588 456.049 433.449 456.049 434.569C456.049 435.675 456.294 436.536 456.784 437.152C457.274 437.754 457.939 438.055 458.779 438.055C459.969 438.055 460.746 437.523 461.11 436.459H464.281C463.959 437.719 463.322 438.72 462.37 439.462C461.418 440.204 460.228 440.575 458.8 440.575C457.68 440.575 456.686 440.33 455.818 439.84C454.95 439.336 454.271 438.636 453.781 437.74C453.291 436.83 453.046 435.773 453.046 434.569ZM469.858 431.167V436.795C469.858 437.187 469.949 437.474 470.131 437.656C470.327 437.824 470.649 437.908 471.097 437.908H472.462V440.386H470.614C468.136 440.386 466.897 439.182 466.897 436.774V431.167H465.511V428.752H466.897V425.875H469.858V428.752H472.462V431.167H469.858ZM476.067 427.366C475.549 427.366 475.115 427.205 474.765 426.883C474.429 426.547 474.261 426.134 474.261 425.644C474.261 425.154 474.429 424.748 474.765 424.426C475.115 424.09 475.549 423.922 476.067 423.922C476.585 423.922 477.012 424.09 477.348 424.426C477.698 424.748 477.873 425.154 477.873 425.644C477.873 426.134 477.698 426.547 477.348 426.883C477.012 427.205 476.585 427.366 476.067 427.366ZM477.516 428.752V440.386H474.576V428.752H477.516ZM485.587 440.575C484.467 440.575 483.459 440.33 482.563 439.84C481.667 439.336 480.96 438.629 480.442 437.719C479.938 436.809 479.686 435.759 479.686 434.569C479.686 433.379 479.945 432.329 480.463 431.419C480.995 430.509 481.716 429.809 482.626 429.319C483.536 428.815 484.551 428.563 485.671 428.563C486.791 428.563 487.806 428.815 488.716 429.319C489.626 429.809 490.34 430.509 490.858 431.419C491.39 432.329 491.656 433.379 491.656 434.569C491.656 435.759 491.383 436.809 490.837 437.719C490.305 438.629 489.577 439.336 488.653 439.84C487.743 440.33 486.721 440.575 485.587 440.575ZM485.587 438.013C486.119 438.013 486.616 437.887 487.078 437.635C487.554 437.369 487.932 436.977 488.212 436.459C488.492 435.941 488.632 435.311 488.632 434.569C488.632 433.463 488.338 432.616 487.75 432.028C487.176 431.426 486.469 431.125 485.629 431.125C484.789 431.125 484.082 431.426 483.508 432.028C482.948 432.616 482.668 433.463 482.668 434.569C482.668 435.675 482.941 436.529 483.487 437.131C484.047 437.719 484.747 438.013 485.587 438.013ZM500.26 428.584C501.646 428.584 502.766 429.025 503.62 429.907C504.474 430.775 504.901 431.993 504.901 433.561V440.386H501.961V433.96C501.961 433.036 501.73 432.329 501.268 431.839C500.806 431.335 500.176 431.083 499.378 431.083C498.566 431.083 497.922 431.335 497.446 431.839C496.984 432.329 496.753 433.036 496.753 433.96V440.386H493.813V428.752H496.753V430.201C497.145 429.697 497.642 429.305 498.244 429.025C498.86 428.731 499.532 428.584 500.26 428.584Z" fill="#F9F9F9"/>
<rect x="144.972" y="412.542" width="111.846" height="41.688" rx="20.844" fill="#16191C"/>
<path d="M193.686 425.728L188.73 435.283V440.386H185.79V435.283L180.813 425.728H184.131L187.281 432.427L190.41 425.728H193.686ZM200.548 440.575C199.428 440.575 198.42 440.33 197.524 439.84C196.628 439.336 195.921 438.629 195.403 437.719C194.899 436.809 194.647 435.759 194.647 434.569C194.647 433.379 194.906 432.329 195.424 431.419C195.956 430.509 196.677 429.809 197.587 429.319C198.497 428.815 199.512 428.563 200.632 428.563C201.752 428.563 202.767 428.815 203.677 429.319C204.587 429.809 205.301 430.509 205.819 431.419C206.351 432.329 206.617 433.379 206.617 434.569C206.617 435.759 206.344 436.809 205.798 437.719C205.266 438.629 204.538 439.336 203.614 439.84C202.704 440.33 201.682 440.575 200.548 440.575ZM200.548 438.013C201.08 438.013 201.577 437.887 202.039 437.635C202.515 437.369 202.893 436.977 203.173 436.459C203.453 435.941 203.593 435.311 203.593 434.569C203.593 433.463 203.299 432.616 202.711 432.028C202.137 431.426 201.43 431.125 200.59 431.125C199.75 431.125 199.043 431.426 198.469 432.028C197.909 432.616 197.629 433.463 197.629 434.569C197.629 435.675 197.902 436.529 198.448 437.131C199.008 437.719 199.708 438.013 200.548 438.013ZM219.757 428.752V440.386H216.796V438.916C216.418 439.42 215.921 439.819 215.305 440.113C214.703 440.393 214.045 440.533 213.331 440.533C212.421 440.533 211.616 440.344 210.916 439.966C210.216 439.574 209.663 439.007 209.257 438.265C208.865 437.509 208.669 436.613 208.669 435.577V428.752H211.609V435.157C211.609 436.081 211.84 436.795 212.302 437.299C212.764 437.789 213.394 438.034 214.192 438.034C215.004 438.034 215.641 437.789 216.103 437.299C216.565 436.795 216.796 436.081 216.796 435.157V428.752H219.757Z" fill="#F9F9F9"/>
<mask id="path-11-inside-1_404_130" fill="white">
<path fill-rule="evenodd" clip-rule="evenodd" d="M308.91 299.175C301.457 297.695 295.716 288.422 295.716 277.204C295.716 265.986 301.457 256.713 308.91 255.233V255.027H311.003H530.437H532.551V255.237C539.993 256.731 545.724 265.996 545.724 277.204C545.724 288.412 539.993 297.677 532.551 299.171V299.381H530.437H311.003H308.91V299.175Z"/>
</mask>
<path d="M308.91 299.175L309.3 297.213L310.91 297.533V299.175H308.91ZM308.91 255.233H310.91V256.875L309.3 257.195L308.91 255.233ZM308.91 255.027H306.91V253.027H308.91V255.027ZM532.551 255.027V253.027H534.551V255.027H532.551ZM532.551 255.237L532.157 257.198L530.551 256.876V255.237H532.551ZM532.551 299.171H530.551V297.532L532.157 297.21L532.551 299.171ZM532.551 299.381H534.551V301.381H532.551V299.381ZM308.91 299.381V301.381H306.91V299.381H308.91ZM308.52 301.137C304.09 300.257 300.373 297.111 297.808 292.878C295.233 288.629 293.716 283.141 293.716 277.204H297.716C297.716 282.485 299.07 287.243 301.229 290.805C303.397 294.383 306.277 296.613 309.3 297.213L308.52 301.137ZM293.716 277.204C293.716 271.267 295.233 265.779 297.808 261.53C300.373 257.297 304.09 254.151 308.52 253.271L309.3 257.195C306.277 257.795 303.397 260.025 301.229 263.603C299.07 267.165 297.716 271.923 297.716 277.204H293.716ZM310.91 255.027V255.233H306.91V255.027H310.91ZM311.003 257.027H308.91V253.027H311.003V257.027ZM530.437 257.027H311.003V253.027H530.437V257.027ZM532.551 257.027H530.437V253.027H532.551V257.027ZM530.551 255.237V255.027H534.551V255.237H530.551ZM543.724 277.204C543.724 271.928 542.372 267.174 540.217 263.613C538.052 260.037 535.176 257.804 532.157 257.198L532.944 253.276C537.368 254.164 541.078 257.311 543.639 261.542C546.21 265.789 547.724 271.273 547.724 277.204H543.724ZM532.157 297.21C535.176 296.604 538.052 294.371 540.217 290.795C542.372 287.234 543.724 282.48 543.724 277.204H547.724C547.724 283.135 546.21 288.619 543.639 292.866C541.078 297.097 537.368 300.244 532.944 301.132L532.157 297.21ZM530.551 299.381V299.171H534.551V299.381H530.551ZM530.437 297.381H532.551V301.381H530.437V297.381ZM311.003 297.381H530.437V301.381H311.003V297.381ZM308.91 297.381H311.003V301.381H308.91V297.381ZM310.91 299.175V299.381H306.91V299.175H310.91Z" fill="#16191C" mask="url(#path-11-inside-1_404_130)"/>
<path d="M466.451 277.204L455.527 285.189L455.527 269.219L466.451 277.204Z" fill="#16191C"/>
<path d="M522.433 277.204L511.508 285.189L511.508 269.219L522.433 277.204Z" fill="#16191C"/>
<path d="M447.791 277.204L436.867 285.189L436.867 269.219L447.791 277.204Z" fill="#16191C"/>
<path d="M503.772 277.204L492.848 285.189L492.848 269.219L503.772 277.204Z" fill="#16191C"/>
<path d="M429.131 277.204L418.206 285.189L418.206 269.219L429.131 277.204Z" fill="#16191C"/>
<path d="M485.112 277.204L474.188 285.189L474.188 269.219L485.112 277.204Z" fill="#16191C"/>
<path d="M410.47 277.204L399.546 285.189L399.546 269.219L410.47 277.204Z" fill="#16191C"/>
<path d="M391.81 277.204L380.885 285.189L380.885 269.219L391.81 277.204Z" fill="#16191C"/>
<path d="M373.15 277.204L362.225 285.189L362.225 269.219L373.15 277.204Z" fill="#16191C"/>
<path d="M354.489 277.204L343.565 285.189L343.565 269.219L354.489 277.204Z" fill="#16191C"/>
<path d="M335.829 277.204L324.904 285.189L324.904 269.219L335.829 277.204Z" fill="#16191C"/>
<circle cx="1135.17" cy="288.645" r="77.3584" fill="#F9F9F9"/>
<mask id="mask0_404_130" style="mask-type:alpha" maskUnits="userSpaceOnUse" x="1057" y="211" width="156" height="156">
<circle cx="1135.17" cy="288.644" r="77.3584" fill="white"/>
</mask>
<g mask="url(#mask0_404_130)">
<path d="M1397.47 340.597C1397.12 339.236 1395.66 340.481 1394.93 340.247C1393.56 339.742 1393.99 338.614 1392.96 337.952C1392.7 337.797 1390.77 336.747 1391.5 338.225C1391.93 339.08 1392.61 340.053 1392.83 340.909C1393 341.686 1392.36 342.309 1392.7 343.048C1394.07 346.043 1395.19 342.814 1395.92 341.92C1396.31 341.414 1397.68 341.57 1397.47 340.597ZM1391.76 344.876C1389.69 344.293 1383.98 348.377 1387.72 349.427C1389.91 350.049 1389.61 348.96 1390.64 347.56C1390.98 347.093 1393.39 345.226 1391.76 344.876ZM1366.38 313.72C1365.99 313.098 1365.05 312.787 1364.66 312.203C1364.4 311.814 1364.75 310.997 1364.62 310.881C1364.32 310.531 1363.59 310.492 1363.46 310.375C1363.67 310.647 1362.17 309.091 1362.43 309.208C1360.97 308.43 1356.16 306.563 1354.49 307.224C1350.45 308.819 1352.77 306.835 1349.8 305.746C1349.38 305.591 1347.27 304.93 1347.36 305.902C1347.4 306.174 1348.99 307.03 1349.33 307.38C1349.5 307.536 1350.49 308.508 1350.49 308.547C1350.62 308.664 1350.66 309.014 1351.09 309.247C1351.48 309.48 1352.42 309.403 1352.9 309.519C1353.67 309.753 1355.39 310.336 1355.77 310.92C1356.07 311.347 1355.39 312.086 1355.3 312.048C1355.43 312.164 1355.94 312.553 1356.12 312.709C1355.86 312.475 1359.77 313.837 1359.55 313.915C1360.97 313.837 1360.88 312.475 1362.47 312.787C1363.2 312.942 1363.8 314.109 1364.75 314.459C1366.64 315.198 1367.24 315.159 1366.38 313.72ZM1340.19 293.65C1339.8 293.416 1337.48 292.716 1338.73 293.805C1339.5 294.311 1341.6 298.356 1341.65 295.594C1341.69 294.817 1340.92 294.116 1340.19 293.65ZM1338.21 298.2C1339.16 299.212 1342.38 301.623 1343.45 299.523C1345.34 295.867 1338.3 296.489 1338.21 298.2ZM1342.68 303.724C1342.55 303.335 1338.08 304.463 1338 304.696C1337.27 306.408 1336.37 307.652 1336.88 309.519C1338.04 313.409 1337.65 309.169 1338.38 308.975C1339.03 308.819 1340.01 311.114 1340.87 309.792C1341.3 309.13 1340.01 308.08 1339.67 307.497C1339.5 307.108 1340.4 306.835 1340.14 306.524C1340.1 306.485 1339.33 306.019 1339.37 306.135C1339.28 305.902 1337.95 306.563 1338.38 305.513C1338.77 304.657 1343.49 306.369 1342.68 303.724ZM1337.7 288.943C1337.22 288.865 1336.49 288.982 1336.37 289.449C1336.02 290.694 1335.72 294.35 1337.78 292.327C1337.61 292.483 1338.25 290.188 1338.3 290.343C1338.21 289.76 1339.07 289.177 1337.7 288.943ZM1336.06 283.303C1335.25 283.848 1335.21 286.065 1336.67 286.104C1338 286.104 1337.14 282.448 1336.06 283.303ZM1181.53 307.341C1179.13 306.758 1176.29 306.408 1174.02 305.513C1172.21 304.774 1172 304.035 1171.01 302.479C1168.91 299.29 1163.84 297.734 1160.15 296.372C1157.83 295.517 1157.14 296.1 1154.82 296.217C1152.98 296.333 1151.52 295.244 1149.54 295.4C1147.27 295.556 1146.66 297.189 1144.56 297.617C1142.97 297.928 1140.48 297.695 1139.41 296.684C1137.52 294.933 1139.97 293.261 1138.89 291.744C1137.99 290.499 1135.63 291.86 1134.6 290.616C1133.7 289.527 1135.76 287.037 1134.17 286.259C1132.45 285.404 1131.25 287.543 1130.39 288.049C1128.29 289.332 1126.1 288.399 1124.72 286.648C1123.86 285.559 1123.26 284.159 1123.22 282.798C1123.13 281.242 1124.64 280.658 1125.93 279.569C1127 278.713 1127.39 278.519 1127.73 278.558C1128.16 278.597 1128.54 279.025 1130.05 278.83C1131.42 278.675 1130.95 278.208 1132.62 278.013C1133.74 277.897 1137.13 278.169 1138.12 278.869C1139.15 279.608 1139.37 283.07 1140.87 281.864C1142.03 280.892 1140.61 278.597 1140.35 277.469C1139.79 274.941 1140.22 275.135 1142.67 273.851C1144.56 272.879 1144.65 272.762 1145.08 270.895C1145.68 268.134 1145.46 268.328 1147.52 266.811C1148.73 265.917 1148.55 264.711 1149.58 263.777C1149.84 263.583 1152.16 262.727 1152.59 262.844C1154.01 263.233 1152.46 263.388 1153.02 264.05C1153.19 264.244 1152.72 265.333 1153.49 265.489C1154.26 265.644 1155.17 264.088 1155.64 263.777C1156.76 263.116 1159.5 263.466 1159.12 261.794C1158.77 260.316 1156.07 262.183 1155.04 261.249C1150.49 257.126 1173.37 257.476 1158.73 250.825C1156.33 249.736 1156.11 249.502 1154.82 247.246C1154.65 246.974 1153.66 244.835 1153.41 244.796C1151.86 244.407 1153.23 245.146 1152.29 245.652C1150.92 246.391 1149.67 247.947 1148.38 245.729C1147.65 244.446 1148.17 244.096 1148.08 243.707C1148.04 243.435 1147.74 243.162 1146.49 242.54C1144.47 241.49 1143.62 241.062 1141.6 241.334C1138.76 241.723 1138.76 241.918 1139.37 243.668C1139.79 244.835 1140.18 244.913 1140.31 245.885C1140.4 246.43 1139.71 246.663 1139.92 247.519C1140.05 248.024 1141.04 248.724 1141.47 249.308C1141.6 249.463 1141.68 249.658 1141.68 249.814C1141.64 250.747 1140.61 250.825 1140.14 251.564C1139.19 253.081 1139.88 252.225 1139.54 254.131C1139.41 254.87 1140.1 255.298 1139.06 255.454C1137.09 255.765 1136.53 252.886 1135.97 252.07C1135.37 251.175 1134.77 250.747 1133.96 250.475C1133.18 250.164 1132.24 250.008 1131.04 249.697C1130.82 249.619 1130.31 249.58 1129.66 249.502C1128.33 249.347 1126.53 249.152 1126.27 248.997C1125.45 248.452 1126.01 247.791 1125.54 247.052C1125.54 247.013 1125.5 247.013 1125.5 246.974C1125.41 246.857 1125.32 246.78 1125.2 246.741C1124.81 246.585 1124.38 246.896 1124.17 246.43C1123.91 245.963 1123.78 245.535 1123.74 245.146C1123.56 243.94 1124.25 243.046 1125.58 242.345C1125.71 242.268 1127.51 241.684 1127.51 241.762C1127.6 241.645 1128.03 240.712 1127.9 240.79C1128.2 240.517 1130.43 238.145 1130.99 238.339C1131.81 238.65 1130.99 240.945 1133.23 240.634C1135.84 240.284 1133.65 238.534 1133.83 237.6C1134.04 236.317 1135.59 235.733 1135.76 234.527C1135.76 234.566 1135.24 232.077 1135.33 232.155C1134.56 231.26 1131.81 231.104 1131.29 231.61C1130.91 231.999 1132.62 234.138 1130.56 234.683C1128.76 235.15 1130.18 233.555 1128.97 232.699C1128.24 232.194 1127.86 233.127 1127.81 233.127C1127.47 232.933 1127.09 232.777 1126.53 232.349C1125.88 231.843 1125.32 230.249 1124.55 229.043C1123.74 227.682 1122.75 226.787 1121.29 228.226C1120 229.51 1121.5 230.56 1122.66 231.532C1123.78 232.505 1124.55 233.399 1122.19 234.45C1121.98 234.527 1121.72 234.605 1121.37 234.683C1119.4 234.994 1115.71 234.566 1114.2 234.294C1111.15 233.672 1107.72 234.411 1104.33 234.294C1104.41 234.294 1102.87 232.816 1102.48 232.583C1101.32 231.96 1099.13 231.843 1097.89 231.571C1093.55 230.599 1090.37 230.171 1086.08 231.416C1079.42 233.322 1072.85 231.066 1065.94 230.288C1062.42 229.899 1059.29 230.599 1056.11 231.649C1055.29 231.921 1053.36 232.038 1053.66 233.244C1053.88 234.099 1055.94 234.177 1056.45 234.722C1058.47 236.861 1055.21 235.694 1055.59 237.406C1055.81 238.417 1057.87 238.106 1058.08 239.234C1058.47 241.49 1052.76 241.101 1054.09 243.746C1054.56 244.679 1059.41 246.974 1060.53 247.208C1062.33 247.596 1064.22 247.013 1065.81 246.546C1068.05 245.885 1070.79 244.446 1073.2 244.524C1075.17 244.563 1077.88 245.924 1079.81 246.468C1084.15 247.752 1084.96 251.564 1088.4 254.053C1090.63 255.648 1094.71 256.27 1096.56 258.215C1097.72 259.46 1097.11 260.86 1096.94 262.649C1096.77 264.4 1096.13 266.461 1096.94 268.017C1097.72 269.495 1099.26 270.973 1100.72 272.373C1101.41 273.035 1102.01 273.657 1102.57 274.24C1103.81 275.641 1110.21 283.42 1111.11 282.992C1112.19 282.448 1109.01 279.647 1111.58 280.969C1113 281.708 1114.68 285.054 1115.62 286.298C1117.12 288.282 1118.67 289.177 1120.56 289.838C1121.93 290.305 1123.48 290.655 1125.32 291.199C1127 291.705 1127.81 291.977 1129.23 292.872C1129.96 293.338 1130.61 293.961 1131.42 294.194C1132.37 294.466 1133.65 293.844 1134.56 294.194C1135.84 294.7 1136.57 296.684 1137.86 297.539C1139.67 298.745 1141.43 298.745 1143.36 299.212C1150.27 300.923 1142.07 305.28 1141.81 307.613C1141.38 311.309 1145.42 315.276 1147.74 318.076C1148.94 319.555 1150.27 319.943 1151.73 321.149C1153.45 322.55 1153.19 323.366 1153.02 325.233C1152.33 332.235 1150.7 339.781 1151.04 346.821C1151.22 350.088 1152.63 354.017 1153.79 357.167C1154.35 358.645 1155.72 360.707 1157.87 360.007C1160.53 359.112 1157.87 356.039 1157.91 354.289C1157.96 351.722 1159.68 346.315 1161.56 344.448C1162.98 343.048 1165.39 342.542 1166.85 341.22C1168.31 339.897 1168.22 338.653 1170.07 337.719C1171.18 337.175 1171.78 337.369 1172.56 336.319C1173.03 335.696 1173.2 334.802 1173.5 334.102C1174.19 332.507 1174.66 329.979 1175.82 328.617C1178.4 325.661 1183.21 327.528 1183.89 323.016C1184.15 321.266 1183.68 318.621 1184.62 317.065C1185.48 315.665 1187.93 315.354 1188.66 313.837C1190.89 309.247 1185.09 308.197 1181.53 307.341ZM1151.47 234.255C1149.84 233.322 1149.93 232.077 1148.6 230.949C1148.21 230.599 1147.7 230.327 1147.14 230.054C1146.06 229.549 1144.86 229.121 1143.96 228.576C1142.37 227.643 1141.13 226.009 1139.58 225.076C1139.11 224.803 1138.59 224.57 1138.08 224.453C1136.4 224.064 1129.23 223.753 1128.67 225.62C1128.59 225.776 1128.54 225.97 1128.5 226.126C1127.86 228.887 1133.87 229.393 1135.8 229.938C1138.21 230.638 1140.61 231.649 1141.6 233.827C1142.11 234.955 1141.6 236.472 1142.16 237.6C1142.89 239.078 1144.09 239.428 1145.63 240.206C1146.58 240.673 1147.78 241.568 1148.9 241.995C1149.11 242.073 1149.37 242.151 1149.54 242.19C1152.25 242.657 1151.82 241.412 1152.85 239.856C1153.36 239.078 1154.99 237.989 1155.04 236.978C1155.17 234.722 1152.98 235.111 1151.47 234.255ZM1124.17 224.453C1122.58 224.181 1120.77 225.737 1122.71 226.709C1124.85 227.798 1126.18 224.453 1124.17 224.453ZM1116.87 225.114C1113.82 226.787 1118.71 229.354 1119.44 228.46C1121.76 226.593 1119.74 223.559 1116.87 225.114ZM1116.35 230.132C1116.01 229.237 1114.5 228.926 1113.9 228.265C1112.96 227.215 1112.87 225.387 1111.33 224.803C1109.22 223.986 1106.6 226.009 1104.46 225.581C1102.22 225.114 1090.93 221.497 1092.65 226.748C1093.46 229.199 1097.03 227.876 1098.87 228.498C1101.02 229.237 1102.31 231.61 1104.37 232.232C1106.6 232.894 1108.66 231.299 1110.98 231.532C1112.61 231.727 1117.9 233.944 1116.35 230.132ZM1108.88 220.758C1107.98 220.019 1103.21 219.241 1101.75 218.697C1100.16 218.074 1099.95 217.919 1098.45 218.23C1097.89 218.347 1094.07 219.786 1096.34 220.641C1098.53 221.458 1101.28 223.131 1103.6 223.364C1105.36 223.52 1111.2 222.664 1108.88 220.758ZM1107.89 216.596C1107.63 214.185 1102.14 216.285 1103.55 217.724C1104.59 218.541 1108.06 218.152 1107.89 216.596ZM1122.06 221.614C1121.67 220.68 1119.31 219.98 1118.45 219.513C1117.6 219.008 1117.42 218.424 1116.18 218.424C1115.32 218.424 1113.26 218.852 1114.63 220.058C1115.71 221.03 1116.65 222.119 1117.98 222.625C1119.27 223.131 1122.92 223.714 1122.06 221.614ZM1151.22 207.961C1148.77 207.339 1146.19 206.872 1143.7 206.444C1140.87 205.939 1138.68 206.561 1135.84 207.067C1133.05 207.572 1130.22 208.039 1127.43 208.545C1126.05 208.778 1124.38 208.584 1124.98 209.828C1126.36 212.668 1134.38 210.295 1134.94 211.423C1135.67 212.823 1129.96 212.901 1129.58 212.862C1127.09 212.551 1125.02 210.956 1122.79 210.373C1121.63 210.062 1117.34 210.645 1117.6 212.123C1117.9 213.835 1121.89 215.468 1123.48 216.013C1124.47 216.324 1125.37 216.791 1126.31 216.674C1127.04 216.596 1129.15 214.807 1129.66 215.702C1130.39 216.946 1125.88 219.28 1125.15 219.358C1124.68 219.397 1118.33 216.907 1120.26 219.436C1120.99 220.408 1122.79 219.747 1123.65 220.447C1124.34 220.991 1124.59 223.52 1125.45 223.52H1130.31C1131.46 223.52 1135.93 224.181 1136.83 223.52C1140.05 221.303 1133.78 220.719 1132.19 221.03C1131.12 221.264 1128.42 222.858 1127.81 221.225C1127.21 219.552 1130.18 219.902 1131.16 219.941C1132.67 220.019 1136.02 221.108 1137.3 220.602C1138.42 220.175 1138.03 219.008 1138.72 217.958C1139.24 217.18 1140.57 216.791 1140.95 215.974C1141.08 215.702 1140.65 215.079 1140.52 215.118C1141.13 214.418 1142.5 213.873 1143.83 213.29C1145.63 212.473 1151.47 210.645 1152.72 209.361C1153.79 208.117 1152.72 208.35 1151.22 207.961ZM1116.31 215.818C1115.36 214.224 1110 214.885 1111.67 216.518C1112.7 217.063 1117.72 218.191 1116.31 215.818ZM1118.41 216.052C1119.06 216.985 1120.3 217.024 1120.6 215.935C1120.99 214.574 1117.47 214.146 1118.41 216.052ZM1199.78 210.762C1199.74 206.911 1175.56 206.094 1171.83 206.717C1166.24 207.611 1159.07 207.533 1154.61 210.684C1152.07 212.473 1150.36 213.601 1147.27 214.496C1145.76 214.963 1143.87 215.118 1144.17 216.868C1144.35 217.841 1146.75 220.564 1147.91 220.602C1150.14 220.68 1153.15 220.291 1155.25 221.069C1157.7 222.003 1160.36 224.92 1162.25 226.593C1166.07 229.938 1165.77 236.005 1167.15 240.401C1167.62 241.918 1168.65 244.29 1170.58 244.796C1173.72 245.613 1173.46 240.517 1174.92 239.039C1176.08 237.834 1176.81 238.495 1178.4 238.184C1180.03 237.834 1180.46 237.328 1181.53 236.2C1183.42 234.138 1185.31 233.711 1188.14 232.777C1191.88 231.532 1195.7 226.126 1195.01 222.353C1194.58 219.941 1191.45 217.219 1193.25 215.079C1194.54 213.679 1199.78 212.94 1199.78 210.762ZM1389.09 231.727C1385.92 230.677 1383.34 229.121 1380.38 230.482C1377.46 231.805 1374.75 231.96 1371.23 231.377C1367.92 230.832 1366.94 227.993 1364.1 226.631C1361.36 225.309 1356.89 226.126 1353.97 226.126C1352.55 226.126 1351.31 225.97 1350.11 226.554C1348.43 227.37 1348.13 229.082 1346.03 229.315C1344.87 229.432 1342.12 228.732 1341 228.343C1338.56 227.409 1339.5 226.126 1337.83 224.764C1337.1 224.181 1334.26 223.597 1333.4 223.675C1331.3 223.87 1331.43 225.776 1329.24 225.776C1328.38 225.776 1325.37 224.881 1324.64 224.414C1321.9 222.547 1324.99 222.392 1325.16 220.68C1325.46 217.802 1320.05 218.308 1318.07 218.152C1315.02 217.919 1311.12 216.985 1308.11 217.374C1305.11 217.763 1302.06 220.019 1299.44 221.264C1298.58 221.692 1296.91 222.158 1296.22 222.82C1295.06 223.948 1295.19 224.92 1293.6 225.853C1292.7 226.398 1290.76 227.526 1289.65 227.565C1287.89 227.643 1287.03 226.398 1285.27 226.515C1284.11 226.593 1281.75 227.682 1280.8 228.265C1280.33 228.537 1279.82 228.537 1279.43 228.965C1278.74 229.704 1279.3 231.104 1278.18 231.61C1276.94 232.155 1274.79 230.832 1273.5 230.754C1271.23 230.638 1271.44 231.882 1269.64 232.583C1267.28 233.477 1264.19 232.66 1261.78 233.672C1258.69 234.994 1256.16 238.222 1252.89 239.117C1251.91 239.389 1250.53 239.623 1249.8 238.417C1248.47 236.161 1252.34 236.861 1253.32 235.928C1255.04 234.294 1251.52 233.166 1249.42 232.388C1249.12 232.271 1248.86 232.155 1248.6 232.077C1246.28 231.066 1242.12 228.265 1239.58 228.148C1236.83 228.032 1233.14 231.338 1231 232.544C1229.66 233.283 1228.55 233.905 1227.52 234.683C1226.79 235.189 1226.14 235.811 1225.5 236.55C1224.04 238.184 1219.57 241.49 1219.36 243.668C1219.27 244.485 1220.69 246.624 1221.51 247.052C1223.35 248.063 1223.95 246.352 1225.76 246.585C1227.99 246.896 1228.38 252.536 1231.85 249.269C1232.46 248.686 1233.36 246.274 1233.44 245.496C1233.61 244.096 1232.46 242.812 1232.97 241.49C1233.19 240.945 1234.77 239.273 1236.41 238.261C1237.74 237.406 1239.02 237.017 1239.58 237.95C1239.63 237.989 1239.63 238.067 1239.67 238.106C1240.27 240.09 1232.93 242.657 1238.17 244.563C1239.2 244.952 1241.94 243.629 1242.72 244.835C1243.79 246.468 1240.31 246.157 1239.67 246.78C1238.77 247.674 1239.5 248.763 1238.12 249.658C1236.71 250.591 1234.3 251.369 1232.63 251.836C1230.14 252.536 1227.39 251.564 1224.9 252.031C1222.41 252.497 1220 254.52 1218.11 255.92C1216.87 256.815 1215.11 257.787 1214.76 259.304C1214.38 261.171 1216.83 262.649 1215.45 264.4C1214.46 265.644 1212.88 264.672 1211.46 265.255C1209.83 265.917 1211.65 269.145 1212.9 270.74C1214.44 272.762 1216.4 272.334 1218.07 270.74C1219.32 269.534 1218.33 267.395 1219.87 266.033C1220.82 265.178 1223.18 264.127 1224.43 263.933C1227.09 263.505 1227.13 265.022 1228.55 266.461C1229.06 267.006 1231.6 269.262 1232.33 269.339C1236.32 269.728 1230.61 264.516 1230.44 263.427C1230.35 262.999 1230.61 261.716 1231.08 261.482C1232.24 260.938 1231.98 261.638 1232.63 262.299C1233.4 263.077 1234.09 264.672 1234.95 265.605C1236.15 266.967 1238.34 271.284 1239.93 271.401C1241.52 271.518 1241.04 269.417 1242.37 269.612C1243.49 269.767 1244.09 272.14 1245.77 272.49C1247.23 272.762 1248.81 271.712 1250.32 271.984C1252.46 272.412 1253.62 274.59 1252.51 276.341C1251.18 278.402 1246.84 277.469 1244.35 277.041C1242.93 276.808 1240.83 276.107 1239.41 276.224C1237.18 276.419 1236.92 278.169 1234.43 277.702C1232.93 277.43 1230.39 276.496 1229.11 275.68C1227.26 274.552 1228.5 275.018 1227.9 273.346C1227.35 271.829 1227.73 272.179 1225.84 272.062C1223.95 271.946 1221.89 272.296 1220 272.412C1215.8 272.685 1211.84 273.112 1209.14 276.224C1207.51 278.091 1206.01 280.075 1204.5 282.059C1203.82 282.992 1202.61 284.12 1202.36 285.287C1201.93 287.232 1203.51 289.332 1203.3 291.433C1202.96 295.167 1205.58 296.528 1208.54 299.017C1211.29 301.312 1213.05 301.896 1216.65 301.857C1217.98 301.857 1219.1 301.818 1220.35 301.429C1221.63 301.04 1222.84 299.834 1224.3 300.068C1225.2 300.223 1226.36 301.507 1227.3 301.857C1229.32 302.596 1229.02 301.429 1229.71 303.49C1230.14 304.852 1229.71 306.291 1230.27 307.652C1230.74 308.819 1231.77 310.025 1232.41 311.075C1234.47 314.342 1234.04 315.237 1233.4 318.699C1232.84 321.616 1234.77 322.938 1235.46 325.7C1235.8 327.1 1235.42 328.462 1236.15 329.823C1236.75 330.99 1238.04 332.118 1238.9 333.207C1241.09 335.891 1241.77 337.33 1245.47 337.447C1249.54 337.563 1250.53 337.136 1252.64 334.18C1253.49 332.974 1253.92 332.274 1254.22 330.873C1254.65 329.006 1254.65 329.162 1256.03 327.917C1257.62 326.439 1256.84 326.206 1257.23 324.378C1257.53 322.9 1258.35 322.316 1259.46 321.227C1261.7 319.049 1262.08 317.337 1261.4 314.187C1261.14 313.059 1260.24 312.242 1259.94 311.192C1259.42 309.325 1260.32 308.858 1261.48 307.652C1263.54 305.513 1266.76 303.607 1267.96 300.923C1268.57 299.601 1268.91 297.267 1267.62 296.139C1266.03 294.778 1263.28 295.594 1261.31 294.272C1258.9 292.677 1257.36 291.744 1256.16 289.254C1255.81 288.515 1251.73 281.086 1252.25 280.775C1252.68 280.542 1257.87 286.026 1258.43 286.726C1260.32 289.099 1261.31 293.689 1265.26 293.689C1267.49 293.689 1272.17 292.055 1273.76 290.888C1276.08 289.215 1277.28 284.937 1273.8 283.264C1271.7 282.253 1271.96 283.926 1270.11 284.198C1268.14 284.47 1267.49 282.759 1266.59 281.242C1266.08 280.347 1264.62 278.636 1266.59 278.363C1267.79 278.208 1269.08 280.892 1270.41 281.242C1271.92 281.631 1273.16 280.931 1274.66 281.553C1276.77 282.37 1276.72 282.875 1279.26 282.875C1283.34 282.875 1284.75 283.848 1287.54 286.921C1289.43 288.982 1290.59 291.588 1291.97 293.961C1293.73 296.956 1294.89 299.173 1296.95 295.4C1298.54 292.522 1299.65 291.316 1302.36 289.293C1303.56 288.399 1304.98 286.804 1306.44 286.259C1308.33 285.52 1308.54 286.026 1309.53 287.737C1310.6 289.643 1310.3 289.721 1312.19 290.616C1312.84 290.927 1313.44 290.421 1314.17 290.966C1314.72 291.394 1315.02 293.066 1315.15 293.611C1315.8 296.256 1315.67 298.434 1317.56 300.807C1318.25 301.662 1319.36 303.374 1320.56 302.168C1321.47 301.234 1319.49 298.978 1318.89 298.2C1318.37 297.539 1316.1 295.789 1318.03 295.244C1319.79 294.739 1320.18 297.85 1321.72 298.084C1324.34 298.434 1327.35 293.338 1325.85 291.316C1325.03 290.188 1322.71 290.266 1322.58 288.632C1322.41 286.22 1325.59 287.854 1326.79 287.815C1329.15 287.776 1333.7 284.587 1334.99 282.992C1336.32 281.358 1337.01 277.313 1336.49 275.213C1336.11 273.579 1334.65 272.801 1335.08 271.051C1335.55 269.184 1337.52 268.834 1339.33 269.728C1340.83 270.429 1341.09 272.607 1342.55 272.957C1346.16 273.813 1342.89 270.117 1342.76 269.339C1342.59 268.25 1343.28 266.578 1344.39 265.917C1345.73 265.139 1347.66 266.072 1348.99 265.45C1350.96 264.516 1352.94 259.965 1353.45 258.021C1353.71 257.087 1353.76 255.337 1353.37 254.442C1352.68 252.809 1350.15 252.692 1350.53 250.903C1350.92 249.075 1354.87 246.624 1356.76 246.313C1360.02 245.768 1362.69 246.896 1365.52 245.263C1366.55 244.64 1372.78 239.895 1373.64 243.59C1374.19 246.118 1368.01 247.869 1367.58 250.514C1367.24 252.731 1368.7 257.048 1371.4 255.376C1373.81 253.898 1375.78 250.786 1376.25 248.297C1376.81 245.224 1379.35 245.535 1382.44 244.446C1384.03 243.901 1385.57 242.968 1387.2 242.579C1388.15 242.345 1389.39 242.618 1390.25 242.307C1391.71 241.762 1396.09 237.795 1396.65 236.433C1397.98 233.438 1391.41 232.505 1389.09 231.727ZM1258.69 267.706C1257.02 268.562 1252.68 266.772 1250.75 266.617C1247.7 266.383 1244.48 266.695 1246.28 263.077C1247.01 261.599 1247.4 261.288 1249.2 260.977C1250.57 260.743 1253.92 260.627 1254.4 262.221C1254.95 263.855 1262.51 265.761 1258.69 267.706ZM1267.92 272.023C1265.13 272.023 1265.6 268.484 1264.7 266.733C1263.67 264.789 1261.87 261.988 1265.73 261.755C1267.19 261.638 1268.22 262.572 1268.82 263.777C1269 264.088 1269.12 264.4 1269.21 264.75C1269.42 265.411 1269.55 266.111 1269.6 266.733C1269.77 268.484 1270.88 272.023 1267.92 272.023ZM1267.54 318.349C1265.78 320.216 1264.96 321.305 1264.7 323.833C1264.53 325.817 1265.13 329.823 1268.52 328.112C1270.33 327.217 1270.63 323.444 1271.01 321.772C1271.4 320.06 1270.33 315.393 1267.54 318.349ZM1320.44 305.474C1320.26 305.396 1314.3 302.09 1316.14 304.813C1317.13 306.252 1323.7 314.07 1324.3 308.975C1324.51 307.147 1322.11 306.446 1320.44 305.474ZM1325.8 310.531C1325.12 312.903 1330.65 314.615 1332.2 313.214C1335.42 310.336 1326.92 307.925 1325.8 310.531ZM1335.38 302.09C1335.12 300.923 1335.98 299.29 1334.6 298.551C1332.63 297.5 1332.33 299.562 1331.73 300.729C1331.13 301.935 1330.78 302.596 1329.45 303.335C1328.64 303.802 1325.67 304.035 1327.05 305.63C1328.38 307.147 1331.17 310.219 1333.75 309.286C1334.73 308.936 1335.59 306.563 1335.89 305.785C1336.58 303.879 1335.76 303.957 1335.38 302.09ZM1371.62 329.045C1370.97 325.7 1366.89 324.455 1364.45 322.005C1363.33 320.877 1362.51 318.388 1361.14 317.649C1357.45 315.665 1359.47 319.943 1357.58 320.916C1354.49 322.511 1354.31 317.454 1353.71 316.56C1352.12 314.265 1349.07 316.248 1347.74 317.454C1345.9 319.088 1344.57 318.504 1342.72 319.593C1341.3 320.41 1340.79 322.588 1339.03 323.25C1337.61 323.755 1335.12 324.183 1334.05 325.117C1332.63 326.361 1333.62 328.073 1334.09 329.784C1334.56 331.612 1334.78 334.102 1335.72 335.774C1336.79 337.68 1338 337.291 1340.19 337.291C1342.12 337.291 1343.19 337.252 1344.87 336.63C1347.19 335.735 1348.43 334.141 1351.01 335.152C1351.91 335.502 1352.64 336.474 1353.58 336.708C1354.44 336.941 1354.96 336.552 1355.64 336.63C1358.99 336.902 1357.53 338.614 1359.72 340.558C1362.17 342.737 1367.41 341.181 1369.17 339.119C1371.75 336.163 1372.39 332.857 1371.62 329.045Z" fill="#1EBFBF"/>
<path d="M1211.11 360.664C1195.54 357.649 1197.55 360.664 1178.45 360.664C1166.27 361.589 1154.83 363.679 1141.27 360.664C1131.53 358.501 1115.64 364.182 1091.02 360.664C1066.4 357.147 1073.93 361.168 1048.81 356.645C1023.69 352.123 1020.67 373.227 1038.76 375.74C1056.85 378.252 1153.83 379.256 1269.9 379.759C1385.98 380.261 1393.01 367.699 1383.97 363.679C1374.92 359.659 1341.76 366.192 1324.17 360.664C1306.59 355.137 1281.46 368.202 1259.35 360.664C1237.24 353.127 1226.69 363.679 1211.11 360.664Z" fill="#1EBFBF"/>
</g>
<path d="M1211.73 288.646C1211.73 330.93 1177.45 365.208 1135.17 365.208C1092.89 365.208 1058.61 330.93 1058.61 288.646C1058.61 246.361 1092.89 212.083 1135.17 212.083C1155.56 212.083 1174.08 220.051 1187.81 233.046C1202.54 247.001 1211.73 266.749 1211.73 288.646Z" stroke="#F9F9F9" stroke-width="1.59139"/>
<path d="M1100.29 214.537C1089.19 201.427 1081.07 194.332 1078.28 196.117C1074.72 198.39 1080.61 214.554 1092.62 237.709M1187.05 350.571C1193.87 365.44 1196.66 375.279 1193.95 377.015C1187.94 380.86 1157.17 343.482 1125.23 293.529C1121.3 287.397 1117.55 281.361 1113.99 275.482" stroke="#16191C" stroke-width="2" stroke-linecap="round"/>
<path d="M1197.4 235.244C1213.12 227.773 1223.6 224.603 1225.41 227.403C1227.52 230.654 1217.53 241.289 1199.99 255.499M1060.75 324.628C1049.54 334.546 1043.64 341.731 1045.31 344.302C1047.58 347.809 1063.44 341.949 1086.18 330.006M1164.17 282.103C1157.27 286.882 1149.98 291.773 1142.4 296.694C1134.42 301.872 1126.6 306.768 1119.09 311.314" stroke="#16191C" stroke-width="2" stroke-linecap="round"/>
<path d="M1199.33 263.022C1198.95 261.331 1197.56 260.083 1195.9 259.897C1191.95 259.456 1187.96 259.454 1183.99 259.456C1180.02 259.454 1176.02 259.456 1172.08 259.897C1170.42 260.083 1169.03 261.331 1168.64 263.022C1168.09 265.43 1168.08 268.059 1168.08 270.539C1168.08 273.019 1168.08 275.648 1168.64 278.056C1169.03 279.747 1170.41 280.995 1172.07 281.181C1176.02 281.622 1180.01 281.624 1183.98 281.622C1187.96 281.624 1191.95 281.622 1195.89 281.181C1197.56 280.995 1198.94 279.747 1199.33 278.056C1199.88 275.647 1199.88 273.019 1199.88 270.539C1199.88 268.059 1199.89 265.43 1199.33 263.022ZM1179.88 275.475C1179.88 271.957 1179.88 268.476 1179.88 264.958C1183.25 266.717 1186.6 268.464 1189.99 270.233C1186.61 271.986 1183.26 273.723 1179.88 275.475Z" fill="#16191C"/>
<path d="M1108.36 241.937H1094.08C1089.43 241.937 1085.65 245.718 1085.65 250.365V264.644C1085.65 269.291 1089.43 273.072 1094.08 273.072H1108.36C1113 273.072 1116.78 269.291 1116.78 264.644V250.365C1116.78 245.718 1113 241.937 1108.36 241.937ZM1101.22 266.018C1096.52 266.018 1092.7 262.199 1092.7 257.505C1092.7 252.81 1096.52 248.992 1101.22 248.992C1105.91 248.992 1109.73 252.81 1109.73 257.505C1109.73 262.199 1105.91 266.018 1101.22 266.018ZM1109.93 250.999C1108.55 250.999 1107.42 249.871 1107.42 248.484C1107.42 247.096 1108.55 245.968 1109.93 245.968C1111.32 245.968 1112.45 247.096 1112.45 248.484C1112.45 249.871 1111.32 250.999 1109.93 250.999ZM1101.22 250.817C1097.53 250.817 1094.53 253.817 1094.53 257.505C1094.53 261.192 1097.53 264.192 1101.22 264.192C1104.9 264.192 1107.9 261.192 1107.9 257.505C1107.9 253.817 1104.9 250.817 1101.22 250.817ZM1109.93 247.793C1109.55 247.793 1109.24 248.103 1109.24 248.484C1109.24 248.864 1109.55 249.174 1109.93 249.174C1110.31 249.174 1110.62 248.864 1110.62 248.484C1110.62 248.103 1110.31 247.793 1109.93 247.793Z" fill="#16191C"/>
<path d="M1111.63 309.924H1090.94C1090.23 309.924 1089.65 310.498 1089.65 311.208V331.905C1089.65 332.614 1090.23 333.189 1090.94 333.189H1102.08V324.18H1099.05V320.668H1102.08V318.078C1102.08 315.074 1103.91 313.437 1106.6 313.437C1107.88 313.437 1108.98 313.533 1109.3 313.575V316.715L1107.44 316.716C1105.99 316.716 1105.71 317.409 1105.71 318.425V320.667H1109.18L1108.73 324.178H1105.71V333.188H1111.63C1112.34 333.188 1112.92 332.613 1112.92 331.905V311.207C1112.92 310.498 1112.34 309.924 1111.63 309.924Z" fill="#16191C"/>
<path d="M702.791 240.237L676.244 305.659C674.862 309.063 677.368 312.783 681.042 312.783C683.271 312.783 685.249 311.358 685.954 309.243L708.287 242.266C708.92 240.368 707.507 238.408 705.507 238.408C704.314 238.408 703.24 239.131 702.791 240.237Z" fill="#16191C"/>
<path d="M592.234 240.237L618.781 305.659C620.162 309.063 617.657 312.783 613.983 312.783C611.754 312.783 609.776 311.358 609.071 309.243L586.738 242.266C586.105 240.368 587.517 238.408 589.518 238.408C590.711 238.408 591.785 239.131 592.234 240.237Z" fill="#16191C"/>
<rect x="576.946" y="306.233" width="141.56" height="32.3723" rx="2.95684" fill="#F9F9F9"/>
<rect x="590.336" y="319.659" width="9.56493" height="6.23284" rx="0.98246" fill="#16191C"/>
<rect x="592.044" y="322.97" width="6.14888" height="4.49779" rx="0.98246" fill="#16191C"/>
<rect x="603.438" y="319.659" width="9.56493" height="6.23284" rx="0.98246" fill="#16191C"/>
<rect x="605.147" y="322.97" width="6.14888" height="4.49779" rx="0.98246" fill="#16191C"/>
<rect x="616.541" y="319.659" width="9.56493" height="6.23284" rx="0.98246" fill="#16191C"/>
<rect x="618.25" y="322.97" width="6.14888" height="4.49779" rx="0.98246" fill="#16191C"/>
<circle cx="703.352" cy="323.49" r="3.97794" fill="#1EBFBF"/>
<circle cx="691.44" cy="323.49" r="3.97794" fill="#FA3556"/>
<circle cx="679.528" cy="323.49" r="3.97794" fill="#16191C"/>
<circle cx="667.615" cy="323.49" r="3.97794" fill="#16191C"/>
<rect x="807.259" y="221.045" width="148.8" height="133.361" rx="13.5287" fill="#F9F9F9"/>
<rect x="816.754" y="231.893" width="129.809" height="31.6793" rx="5.07327" fill="#1EBFBF"/>
<rect x="825.6" y="245.065" width="46.8917" height="5.33662" rx="2.66831" fill="#16191C"/>
<circle cx="882.788" cy="247.733" r="3.15328" fill="#16191C"/>
<circle cx="894.072" cy="247.733" r="3.15328" fill="#FA3556"/>
<circle cx="935.446" cy="247.733" r="3.15328" fill="#F9F9F9"/>
<rect x="816.754" y="272.457" width="129.809" height="31.6793" rx="5.07327" fill="#1EBFBF"/>
<rect x="825.6" y="285.628" width="46.8917" height="5.33662" rx="2.66831" fill="#16191C"/>
<circle cx="882.788" cy="288.296" r="3.15328" fill="#16191C"/>
<circle cx="894.072" cy="288.296" r="3.15328" fill="#FA3556"/>
<circle cx="935.446" cy="288.296" r="3.15328" fill="#F9F9F9"/>
<rect x="816.754" y="313.021" width="129.809" height="31.6793" rx="5.07327" fill="#1EBFBF"/>
<rect x="825.6" y="326.192" width="46.8917" height="5.33662" rx="2.66831" fill="#16191C"/>
<circle cx="882.788" cy="328.861" r="3.15328" fill="#16191C"/>
<circle cx="894.072" cy="328.861" r="3.15328" fill="#FA3556"/>
<circle cx="935.446" cy="328.861" r="3.15328" fill="#F9F9F9"/>
<path d="M982.808 276.204C982.256 276.204 981.808 276.652 981.808 277.204C981.808 277.756 982.256 278.204 982.808 278.204L982.808 276.204ZM1025.39 277.911C1025.78 277.521 1025.78 276.887 1025.39 276.497L1019.03 270.133C1018.64 269.742 1018 269.742 1017.61 270.133C1017.22 270.523 1017.22 271.157 1017.61 271.547L1023.27 277.204L1017.61 282.861C1017.22 283.251 1017.22 283.885 1017.61 284.275C1018 284.666 1018.64 284.666 1019.03 284.275L1025.39 277.911ZM982.808 278.204L1024.68 278.204L1024.68 276.204L982.808 276.204L982.808 278.204Z" fill="#16191C"/>
<path d="M736.558 276.204C736.006 276.204 735.558 276.652 735.558 277.204C735.558 277.756 736.006 278.204 736.558 278.204L736.558 276.204ZM779.142 277.911C779.533 277.521 779.533 276.887 779.142 276.497L772.778 270.133C772.388 269.742 771.755 269.742 771.364 270.133C770.973 270.523 770.973 271.157 771.364 271.547L777.021 277.204L771.364 282.861C770.973 283.251 770.973 283.885 771.364 284.275C771.755 284.666 772.388 284.666 772.778 284.275L779.142 277.911ZM736.558 278.204L778.435 278.204L778.435 276.204L736.558 276.204L736.558 278.204Z" fill="#16191C"/>
<path d="M79.1924 223.876C79.1924 218.667 83.4154 214.444 88.6247 214.444H317.831C323.04 214.444 327.263 218.667 327.263 223.876V361.588H79.1924V223.876Z" fill="#F9F9F9"/>
<path d="M61.129 361.588H89.3753H204.972H348.816V366.305C348.816 371.514 344.593 375.737 339.383 375.737H70.5614C65.352 375.737 61.129 371.514 61.129 366.305V361.588Z" fill="#F9F9F9"/>
<path d="M178.729 367.478H223.061C226.187 367.478 228.721 364.944 228.721 361.818H173.07C173.07 364.944 175.604 367.478 178.729 367.478Z" fill="#16191C"/>
<path d="M88.2818 361.703H105.386" stroke="#16191C" stroke-width="2" stroke-linecap="round"/>
<path d="M117.826 361.703H319.578" stroke="#16191C" stroke-width="2" stroke-linecap="round"/>
<mask id="mask1_404_130" style="mask-type:alpha" maskUnits="userSpaceOnUse" x="83" y="219" width="240" height="137">
<rect x="83.9084" y="219.696" width="238.403" height="136.23" rx="4.71618" fill="#1EBFBF"/>
</mask>
<g mask="url(#mask1_404_130)">
<rect x="83.9084" y="219.696" width="238.403" height="136.23" fill="#1EBFBF"/>
<path d="M213.916 261.046C215.265 261.082 216.538 261.108 217.566 261.294C219.717 261.852 221.744 263.046 222.798 265.436C222.798 265.436 223.035 265.861 223.207 267.086C223.38 268.311 223.641 271.71 223.641 271.71C224.002 277.356 224.041 283.227 224.099 288.76C224.006 290.925 223.413 292.96 222.514 294.82C220.316 299.367 216.289 302.871 213.26 304.694C205.765 308.577 198.517 312.035 192.381 314.821C185.886 317.298 182.937 314.811 181.959 311.86C181.762 311.057 181.693 310.23 181.723 309.466C181.723 309.466 181.783 307.635 182.233 304.628C182.682 301.621 185.993 279.971 189.55 268.872C190.448 266.308 193.794 261.493 201.755 261.046H213.916Z" fill="#16191C"/>
<path d="M212.588 271.177C213.166 271.177 213.634 271.655 213.634 272.244V275.976C213.634 276.565 213.166 277.043 212.588 277.043H212.064C208.597 277.043 205.786 279.907 205.786 283.441V289.173C205.786 295.946 200.398 301.437 193.751 301.437H193.228C192.65 301.437 192.181 300.959 192.181 300.37L192.181 296.638C192.181 296.049 192.65 295.571 193.228 295.571H193.751C197.219 295.571 200.03 292.707 200.03 289.173V283.441C200.03 276.668 205.418 271.177 212.064 271.177L212.588 271.177Z" fill="#1EBFBF"/>
<circle opacity="0.3" cx="203.518" cy="288.015" r="118.191" stroke="#16191C" stroke-width="0.7"/>
<circle opacity="0.15" cx="203.519" cy="288.014" r="150.667" stroke="#1EBFBF" stroke-opacity="0.15" stroke-width="0.7"/>
<circle opacity="0.6" cx="203.52" cy="288.012" r="85.7158" stroke="#16191C" stroke-width="0.7"/>
<circle cx="203.122" cy="287.615" r="52.8438" stroke="#16191C" stroke-width="0.7"/>
</g>
<rect x="275.728" y="197.892" width="78.7613" height="149.13" rx="7.56481" fill="#F9F9F9"/>
<mask id="mask2_404_130" style="mask-type:alpha" maskUnits="userSpaceOnUse" x="278" y="201" width="74" height="143">
<rect x="278.956" y="201.119" width="72.3054" height="142.674" fill="#D9D9D9"/>
</mask>
<g mask="url(#mask2_404_130)">
<rect x="278.956" y="201.119" width="72.3054" height="142.674" rx="6.05184" fill="#1EBFBF"/>
<path d="M319.86 258.479C320.512 258.497 321.128 258.51 321.624 258.601C322.664 258.874 323.644 259.459 324.154 260.629C324.154 260.629 324.268 260.837 324.351 261.437C324.435 262.037 324.561 263.702 324.561 263.702C324.736 266.466 324.755 269.341 324.782 272.051C324.737 273.111 324.451 274.108 324.016 275.018C322.954 277.245 321.007 278.961 319.543 279.854C315.92 281.755 312.416 283.449 309.45 284.813C306.31 286.026 304.885 284.808 304.412 283.363C304.317 282.97 304.283 282.565 304.298 282.191C304.298 282.191 304.327 281.294 304.544 279.822C304.761 278.349 306.362 267.747 308.081 262.312C308.515 261.056 310.133 258.698 313.981 258.479H319.86Z" fill="#16191C"/>
<path d="M319.218 263.441C319.497 263.441 319.724 263.674 319.724 263.963V265.791C319.724 266.079 319.497 266.313 319.218 266.313H318.965C317.289 266.313 315.93 267.716 315.93 269.446V272.253C315.93 275.57 313.325 278.259 310.112 278.259H309.859C309.58 278.259 309.353 278.025 309.353 277.736L309.353 275.909C309.353 275.62 309.58 275.386 309.859 275.386H310.112C311.789 275.386 313.147 273.984 313.147 272.253V269.446C313.147 266.129 315.752 263.441 318.965 263.441L319.218 263.441Z" fill="#1EBFBF"/>
<circle opacity="0.3" cx="315.246" cy="272.274" r="68.1351" stroke="#16191C" stroke-width="0.7"/>
<circle cx="315.245" cy="272.273" r="86.8972" stroke="#1EBFBF" stroke-opacity="0.15" stroke-width="0.7"/>
<circle opacity="0.6" cx="315.245" cy="272.272" r="49.3729" stroke="#16191C" stroke-width="0.7"/>
<circle cx="315.016" cy="272.045" r="30.3818" stroke="#16191C" stroke-width="0.7"/>
</g>
<rect x="298.789" y="199.123" width="32.3983" height="7.80753" rx="3.02592" fill="#F9F9F9"/>
</svg>
